# WaveFront *.obj file (generated by Autodesk ATF)

mtllib fightingship.mtl

g Solid1

v -0.376770 0.000000 -0.187500
v -0.376770 0.000000 0.187500
v -0.348904 0.066133 -0.031250
v -0.348904 0.066133 0.031250
v -0.348713 0.052892 -0.031250
v -0.348713 0.052892 0.031250
v -0.346245 0.079105 -0.031250
v -0.346245 0.079105 0.031250
v -0.345680 0.040002 -0.031250
v -0.345680 0.040002 0.031250
v -0.344130 0.025112 -0.187500
v -0.344130 0.025112 0.187500
v -0.340858 0.091202 -0.031250
v -0.340858 0.091202 0.031250
v -0.339947 0.028065 -0.031250
v -0.339947 0.028065 0.031250
v -0.332997 0.101859 -0.031250
v -0.332997 0.101859 0.031250
v -0.323029 0.110576 -0.031250
v -0.323029 0.110576 0.031250
v -0.311420 0.116947 -0.031250
v -0.311420 0.116947 0.031250
v -0.309749 0.047780 -0.187500
v -0.309749 0.047780 0.187500
v -0.305659 0.050245 -0.031250
v -0.305659 0.050245 0.031250
v -0.298713 0.120673 -0.031250
v -0.298713 0.120673 0.031250
v -0.298085 0.000000 -0.031250
v -0.298085 0.000000 0.031250
v -0.291333 -0.000752 -0.031250
v -0.291333 -0.000752 0.031250
v -0.285502 0.121581 -0.031250
v -0.285502 0.121581 0.031250
v -0.284540 -0.000752 -0.031250
v -0.284540 -0.000752 0.031250
v -0.277788 0.000000 -0.031250
v -0.277788 0.000000 0.031250
v -0.273809 0.067886 -0.187500
v -0.273809 0.067886 0.187500
v -0.272405 0.119627 -0.031250
v -0.272405 0.119627 0.031250
v -0.269859 0.069891 -0.031250
v -0.269859 0.069891 0.031250
v -0.260034 0.114903 -0.031250
v -0.260034 0.114903 0.031250
v -0.248968 0.107630 -0.031250
v -0.248968 0.107630 0.031250
v -0.239724 0.098149 -0.031250
v -0.239724 0.098149 0.031250
v -0.236500 0.085322 -0.187500
v -0.236500 0.085322 0.187500
v -0.232734 0.086901 -0.031250
v -0.232734 0.086901 0.031250
v -0.198021 0.099996 -0.187500
v -0.198021 0.099996 0.187500
v -0.158576 0.111829 -0.187500
v -0.158576 0.111829 0.187500
v -0.118374 0.120760 -0.187500
v -0.118374 0.120760 0.187500
v -0.077628 0.126740 -0.187500
v -0.077628 0.126740 0.187500
v -0.036556 0.129738 -0.187500
v -0.036556 0.129738 0.187500
v 0.004626 0.129738 -0.187500
v 0.004626 0.129738 0.187500
v 0.045699 0.126740 -0.187500
v 0.045699 0.126740 0.187500
v 0.086444 0.120760 -0.187500
v 0.086444 0.120760 0.187500
v 0.126646 0.111829 -0.187500
v 0.126646 0.111829 0.187500
v 0.166091 0.099996 -0.187500
v 0.166091 0.099996 0.187500
v 0.204570 0.085322 -0.187500
v 0.204570 0.085322 0.187500
v 0.241879 0.067886 -0.187500
v 0.241879 0.067886 0.187500
v 0.277819 0.047780 -0.187500
v 0.277819 0.047780 0.187500
v 0.312201 0.025112 -0.187500
v 0.312201 0.025112 0.187500
v 0.344840 0.000000 -0.187500
v 0.344840 0.000000 0.187500
vt 0.916445 -0.098025 0.000000
vt 0.833540 -0.034241 0.000000
vt 0.746212 0.023337 0.000000
vt 0.654923 0.074406 0.000000
vt 0.560159 0.118693 0.000000
vt 0.462422 0.155964 0.000000
vt 0.362232 0.186021 0.000000
vt 0.260119 0.208705 0.000000
vt 0.156625 0.223894 0.000000
vt 0.052301 0.231509 0.000000
vt -0.052301 0.231509 0.000000
vt -0.156625 0.223894 0.000000
vt -0.260119 0.208705 0.000000
vt -0.362232 0.186021 0.000000
vt -0.462422 0.155964 0.000000
vt -0.560159 0.118693 0.000000
vt -0.654923 0.074406 0.000000
vt -0.746212 0.023337 0.000000
vt -0.833540 -0.034241 0.000000
vt -0.916445 -0.098025 0.000000
vt 0.251414 -0.079375 0.000000
vt 0.199861 -0.079375 0.000000
vt 0.199861 0.079375 0.000000
vt 0.251414 0.079375 0.000000
vt 1.832891 -0.476250 0.000000
vt 1.832891 0.476250 0.000000
vt 0.000000 0.476250 0.000000
vt 0.000000 -0.476250 0.000000
vt 0.079375 1.870246 0.000000
vt 0.079375 1.766499 0.000000
vt 0.079375 1.662752 0.000000
vt 0.079375 1.559005 0.000000
vt -0.079375 1.559005 0.000000
vt -0.079375 1.662752 0.000000
vt -0.079375 1.766499 0.000000
vt -0.079375 1.870246 0.000000
vt 0.476250 1.987878 0.000000
vt -0.476250 1.987878 0.000000
vt -0.476250 1.883253 0.000000
vt -0.476250 1.778628 0.000000
vt -0.476250 1.674003 0.000000
vt -0.476250 1.569378 0.000000
vt -0.476250 1.464753 0.000000
vt -0.476250 1.360127 0.000000
vt -0.476250 1.255502 0.000000
vt -0.476250 1.150877 0.000000
vt -0.476250 1.046252 0.000000
vt -0.476250 0.941627 0.000000
vt -0.476250 0.837002 0.000000
vt -0.476250 0.732376 0.000000
vt -0.476250 0.627751 0.000000
vt -0.476250 0.523126 0.000000
vt -0.476250 0.418501 0.000000
vt -0.476250 0.313876 0.000000
vt -0.476250 0.209250 0.000000
vt -0.476250 0.104625 0.000000
vt -0.476250 0.000000 0.000000
vt 0.476250 0.000000 0.000000
vt 0.476250 0.104625 0.000000
vt 0.476250 0.209250 0.000000
vt 0.476250 0.313876 0.000000
vt 0.476250 0.418501 0.000000
vt 0.476250 0.523126 0.000000
vt 0.476250 0.627751 0.000000
vt 0.476250 0.732376 0.000000
vt 0.476250 0.837002 0.000000
vt 0.476250 0.941627 0.000000
vt 0.476250 1.046252 0.000000
vt 0.476250 1.150877 0.000000
vt 0.476250 1.255502 0.000000
vt 0.476250 1.360127 0.000000
vt 0.476250 1.464753 0.000000
vt 0.476250 1.569378 0.000000
vt 0.476250 1.674003 0.000000
vt 0.476250 1.778628 0.000000
vt 0.476250 1.883253 0.000000
vt 0.916445 -0.098025 0.000000
vt 0.833540 -0.034241 0.000000
vt 0.746212 0.023337 0.000000
vt 0.654923 0.074406 0.000000
vt 0.560159 0.118693 0.000000
vt 0.462422 0.155964 0.000000
vt 0.362232 0.186021 0.000000
vt 0.260119 0.208705 0.000000
vt 0.156625 0.223894 0.000000
vt 0.052301 0.231509 0.000000
vt -0.052301 0.231509 0.000000
vt -0.156625 0.223894 0.000000
vt -0.260119 0.208705 0.000000
vt -0.362232 0.186021 0.000000
vt -0.462422 0.155964 0.000000
vt -0.560159 0.118693 0.000000
vt -0.654923 0.074406 0.000000
vt -0.746212 0.023337 0.000000
vt -0.833540 -0.034241 0.000000
vt -0.916445 -0.098025 0.000000
vt 0.025776 -0.153393 0.000000
vt -0.025776 -0.153393 0.000000
vt -0.008628 -0.155305 0.000000
vt 0.008628 -0.155305 0.000000
vt 0.025776 -0.153393 0.000000
vt -0.025776 -0.153393 0.000000
vt -0.008628 -0.155305 0.000000
vt 0.008628 -0.155305 0.000000
vt -0.140213 0.067336 0.000000
vt -0.045917 0.024129 0.000000
vt 0.045015 -0.025772 0.000000
vt 0.132107 -0.082107 0.000000
vt 0.146670 -0.051788 0.000000
vt 0.154373 -0.019047 0.000000
vt 0.154859 0.014584 0.000000
vt 0.148103 0.047534 0.000000
vt 0.134422 0.078261 0.000000
vt 0.114455 0.105328 0.000000
vt 0.089136 0.127470 0.000000
vt 0.059650 0.143652 0.000000
vt 0.027374 0.153116 0.000000
vt -0.006182 0.155421 0.000000
vt -0.039449 0.150458 0.000000
vt -0.070871 0.138460 0.000000
vt -0.098980 0.119987 0.000000
vt -0.122460 0.095904 0.000000
vt -0.079375 0.218432 0.000000
vt 0.079375 0.218432 0.000000
vt 0.079375 0.235696 0.000000
vt 0.079375 0.252960 0.000000
vt 0.079375 0.270224 0.000000
vt -0.079375 0.270224 0.000000
vt -0.079375 0.252960 0.000000
vt -0.079375 0.235696 0.000000
vt -0.079375 -0.419017 0.000000
vt 0.079375 -0.419017 0.000000
vt 0.079375 -0.385316 0.000000
vt 0.079375 -0.351615 0.000000
vt 0.079375 -0.317914 0.000000
vt 0.079375 -0.284213 0.000000
vt 0.079375 -0.250512 0.000000
vt 0.079375 -0.216811 0.000000
vt 0.079375 -0.183110 0.000000
vt 0.079375 -0.149409 0.000000
vt 0.079375 -0.115708 0.000000
vt 0.079375 -0.082008 0.000000
vt 0.079375 -0.048307 0.000000
vt 0.079375 -0.014606 0.000000
vt 0.079375 0.019095 0.000000
vt 0.079375 0.052796 0.000000
vt 0.079375 0.086497 0.000000
vt -0.079375 0.086497 0.000000
vt -0.079375 0.052796 0.000000
vt -0.079375 0.019095 0.000000
vt -0.079375 -0.014606 0.000000
vt -0.079375 -0.048307 0.000000
vt -0.079375 -0.082008 0.000000
vt -0.079375 -0.115708 0.000000
vt -0.079375 -0.149409 0.000000
vt -0.079375 -0.183110 0.000000
vt -0.079375 -0.216811 0.000000
vt -0.079375 -0.250512 0.000000
vt -0.079375 -0.284213 0.000000
vt -0.079375 -0.317914 0.000000
vt -0.079375 -0.351615 0.000000
vt -0.079375 -0.385316 0.000000
vt -0.132107 -0.082107 0.000000
vt -0.045015 -0.025772 0.000000
vt 0.045917 0.024129 0.000000
vt 0.140213 0.067336 0.000000
vt 0.122460 0.095904 0.000000
vt 0.098980 0.119987 0.000000
vt 0.070871 0.138460 0.000000
vt 0.039449 0.150458 0.000000
vt 0.006182 0.155421 0.000000
vt -0.027374 0.153116 0.000000
vt -0.059650 0.143652 0.000000
vt -0.089136 0.127470 0.000000
vt -0.114455 0.105328 0.000000
vt -0.134422 0.078261 0.000000
vt -0.148103 0.047534 0.000000
vt -0.154859 0.014584 0.000000
vt -0.154373 -0.019047 0.000000
vt -0.146670 -0.051788 0.000000
vn 0.000000 0.000000 -2.540000
vn 0.000000 0.000000 -2.540000
vn 0.000000 0.000000 -2.540000
vn 0.000000 0.000000 -2.540000
vn 0.000000 0.000000 -2.540000
vn 0.000000 0.000000 -2.540000
vn 0.000000 0.000000 -2.540000
vn 0.000000 0.000000 -2.540000
vn 0.000000 0.000000 -2.540000
vn 0.000000 0.000000 -2.540000
vn 0.000000 0.000000 -2.540000
vn 0.000000 0.000000 -2.540000
vn 0.000000 0.000000 -2.540000
vn 0.000000 0.000000 -2.540000
vn 0.000000 0.000000 -2.540000
vn 0.000000 0.000000 -2.540000
vn 0.000000 0.000000 -2.540000
vn 0.000000 0.000000 -2.540000
vn 0.000000 0.000000 -2.540000
vn 0.000000 0.000000 -2.540000
vn 0.000000 -2.540000 0.000000
vn 0.000000 -2.540000 0.000000
vn 0.000000 -2.540000 0.000000
vn 0.000000 -2.540000 0.000000
vn 0.000000 -2.540000 0.000000
vn 0.000000 -2.540000 0.000000
vn 0.000000 -2.540000 0.000000
vn 0.000000 -2.540000 0.000000
vn -1.455672 2.081494 0.000000
vn -1.301613 2.181148 0.000000
vn -1.140762 2.269419 0.000000
vn -0.973958 2.345849 0.000000
vn -0.973958 2.345849 0.000000
vn -1.140762 2.269419 0.000000
vn -1.301613 2.181148 0.000000
vn -1.455672 2.081494 0.000000
vn -1.621120 1.955395 0.000000
vn -1.621120 1.955395 0.000000
vn -1.474467 2.068223 0.000000
vn -1.319990 2.170075 0.000000
vn -1.158508 2.260411 0.000000
vn -0.990877 2.338752 0.000000
vn -0.817989 2.404682 0.000000
vn -0.640759 2.457850 0.000000
vn -0.460130 2.497975 0.000000
vn -0.277058 2.524844 0.000000
vn -0.092516 2.538315 0.000000
vn 0.092516 2.538315 0.000000
vn 0.277058 2.524844 0.000000
vn 0.460130 2.497975 0.000000
vn 0.640759 2.457850 0.000000
vn 0.817989 2.404682 0.000000
vn 0.990877 2.338752 0.000000
vn 1.158508 2.260411 0.000000
vn 1.319990 2.170075 0.000000
vn 1.474467 2.068223 0.000000
vn 1.621120 1.955395 0.000000
vn 1.621120 1.955395 0.000000
vn 1.474467 2.068223 0.000000
vn 1.319990 2.170075 0.000000
vn 1.158508 2.260411 0.000000
vn 0.990877 2.338752 0.000000
vn 0.817989 2.404682 0.000000
vn 0.640759 2.457850 0.000000
vn 0.460130 2.497975 0.000000
vn 0.277058 2.524844 0.000000
vn 0.092516 2.538315 0.000000
vn -0.092516 2.538315 0.000000
vn -0.277058 2.524844 0.000000
vn -0.460130 2.497975 0.000000
vn -0.640759 2.457850 0.000000
vn -0.817989 2.404682 0.000000
vn -0.990877 2.338752 0.000000
vn -1.158508 2.260411 0.000000
vn -1.319990 2.170075 0.000000
vn -1.474467 2.068223 0.000000
vn 0.000000 0.000000 2.540000
vn 0.000000 0.000000 2.540000
vn 0.000000 0.000000 2.540000
vn 0.000000 0.000000 2.540000
vn 0.000000 0.000000 2.540000
vn 0.000000 0.000000 2.540000
vn 0.000000 0.000000 2.540000
vn 0.000000 0.000000 2.540000
vn 0.000000 0.000000 2.540000
vn 0.000000 0.000000 2.540000
vn 0.000000 0.000000 2.540000
vn 0.000000 0.000000 2.540000
vn 0.000000 0.000000 2.540000
vn 0.000000 0.000000 2.540000
vn 0.000000 0.000000 2.540000
vn 0.000000 0.000000 2.540000
vn 0.000000 0.000000 2.540000
vn 0.000000 0.000000 2.540000
vn 0.000000 0.000000 2.540000
vn 0.000000 0.000000 2.540000
vn 0.000000 0.000000 2.540000
vn 0.000000 0.000000 2.540000
vn 0.000000 0.000000 2.540000
vn 0.000000 0.000000 2.540000
vn 0.000000 0.000000 -2.540000
vn 0.000000 0.000000 -2.540000
vn 0.000000 0.000000 -2.540000
vn 0.000000 0.000000 -2.540000
vn 0.000000 0.000000 -2.540000
vn 0.000000 0.000000 -2.540000
vn 0.000000 0.000000 -2.540000
vn 0.000000 0.000000 -2.540000
vn 0.000000 0.000000 -2.540000
vn 0.000000 0.000000 -2.540000
vn 0.000000 0.000000 -2.540000
vn 0.000000 0.000000 -2.540000
vn 0.000000 0.000000 -2.540000
vn 0.000000 0.000000 -2.540000
vn 0.000000 0.000000 -2.540000
vn 0.000000 0.000000 -2.540000
vn 0.000000 0.000000 -2.540000
vn 0.000000 0.000000 -2.540000
vn 0.000000 0.000000 -2.540000
vn 0.000000 0.000000 -2.540000
vn 0.000000 0.000000 -2.540000
vn 0.000000 0.000000 -2.540000
vn -0.420924 -2.504880 0.000000
vn -0.420924 -2.504880 0.000000
vn -0.140886 -2.536090 0.000000
vn 0.140886 -2.536090 0.000000
vn 0.420924 -2.504880 0.000000
vn 0.420924 -2.504880 0.000000
vn 0.140886 -2.536090 0.000000
vn -0.140886 -2.536090 0.000000
vn 2.289653 1.099585 0.000000
vn 2.289653 1.099585 0.000000
vn 1.999739 1.566092 0.000000
vn 1.616317 1.959367 0.000000
vn 1.157315 2.261022 0.000000
vn 0.644197 2.456951 0.000000
vn 0.100956 2.537993 0.000000
vn -0.447005 2.500357 0.000000
vn -0.974065 2.345804 0.000000
vn -1.455577 2.081561 0.000000
vn -1.869026 1.719983 0.000000
vn -2.195079 1.277979 0.000000
vn -2.418489 0.776216 0.000000
vn -2.528810 0.238157 0.000000
vn -2.520884 -0.311039 0.000000
vn -2.395080 -0.845690 0.000000
vn -2.157282 -1.340796 0.000000
vn -2.157282 -1.340796 0.000000
vn -2.395080 -0.845690 0.000000
vn -2.520884 -0.311039 0.000000
vn -2.528810 0.238157 0.000000
vn -2.418489 0.776216 0.000000
vn -2.195079 1.277979 0.000000
vn -1.869026 1.719983 0.000000
vn -1.455577 2.081561 0.000000
vn -0.974065 2.345804 0.000000
vn -0.447005 2.500357 0.000000
vn 0.100956 2.537993 0.000000
vn 0.644197 2.456951 0.000000
vn 1.157315 2.261022 0.000000
vn 1.616317 1.959367 0.000000
vn 1.999739 1.566092 0.000000
vn 0.000000 0.000000 2.540000
vn 0.000000 0.000000 2.540000
vn 0.000000 0.000000 2.540000
vn 0.000000 0.000000 2.540000
vn 0.000000 0.000000 2.540000
vn 0.000000 0.000000 2.540000
vn 0.000000 0.000000 2.540000
vn 0.000000 0.000000 2.540000
vn 0.000000 0.000000 2.540000
vn 0.000000 0.000000 2.540000
vn 0.000000 0.000000 2.540000
vn 0.000000 0.000000 2.540000
vn 0.000000 0.000000 2.540000
vn 0.000000 0.000000 2.540000
vn 0.000000 0.000000 2.540000
vn 0.000000 0.000000 2.540000
vn 0.000000 0.000000 2.540000
vn 0.000000 0.000000 2.540000
usemtl 191,191,191
f 83/20/20 1/1/1 81/19/19
f 81/19/19 1/1/1 11/2/2
f 81/19/19 11/2/2 79/18/18
f 79/18/18 11/2/2 23/3/3
f 79/18/18 23/3/3 77/17/17
f 77/17/17 23/3/3 39/4/4
f 77/17/17 39/4/4 75/16/16
f 75/16/16 39/4/4 51/5/5
f 75/16/16 51/5/5 73/15/15
f 73/15/15 51/5/5 55/6/6
f 73/15/15 55/6/6 71/14/14
f 71/14/14 55/6/6 57/7/7
f 71/14/14 57/7/7 69/13/13
f 69/13/13 57/7/7 59/8/8
f 69/13/13 59/8/8 67/12/12
f 67/12/12 59/8/8 61/9/9
f 67/12/12 61/9/9 65/11/11
f 65/11/11 61/9/9 63/10/10
f 29/22/22 1/28/28 37/21/21
f 37/21/21 1/28/28 83/25/25
f 37/21/21 83/25/25 38/24/24
f 38/24/24 83/25/25 84/26/26
f 38/24/24 84/26/26 2/27/27
f 29/22/22 30/23/23 1/28/28
f 1/28/28 30/23/23 2/27/27
f 2/27/27 30/23/23 38/24/24
f 25/30/30 23/75/75 15/29/29
f 15/29/29 23/75/75 11/76/76
f 15/29/29 11/76/76 12/39/39
f 12/39/39 11/76/76 1/37/37
f 12/39/39 1/37/37 2/38/38
f 23/75/75 25/30/30 39/74/74
f 39/74/74 25/30/30 43/31/31
f 39/74/74 43/31/31 51/73/73
f 51/73/73 43/31/31 53/32/32
f 51/73/73 53/32/32 55/72/72
f 55/72/72 53/32/32 56/43/43
f 55/72/72 56/43/43 57/71/71
f 57/71/71 56/43/43 58/44/44
f 57/71/71 58/44/44 60/45/45
f 53/32/32 54/33/33 56/43/43
f 56/43/43 54/33/33 52/42/42
f 52/42/42 54/33/33 44/34/34
f 52/42/42 44/34/34 40/41/41
f 40/41/41 44/34/34 26/35/35
f 40/41/41 26/35/35 24/40/40
f 24/40/40 26/35/35 16/36/36
f 24/40/40 16/36/36 12/39/39
f 12/39/39 16/36/36 15/29/29
f 57/71/71 60/45/45 59/70/70
f 59/70/70 60/45/45 62/46/46
f 59/70/70 62/46/46 61/69/69
f 61/69/69 62/46/46 64/47/47
f 61/69/69 64/47/47 63/68/68
f 63/68/68 64/47/47 66/48/48
f 63/68/68 66/48/48 65/67/67
f 65/67/67 66/48/48 68/49/49
f 65/67/67 68/49/49 67/66/66
f 67/66/66 68/49/49 70/50/50
f 67/66/66 70/50/50 69/65/65
f 69/65/65 70/50/50 72/51/51
f 69/65/65 72/51/51 71/64/64
f 71/64/64 72/51/51 74/52/52
f 71/64/64 74/52/52 73/63/63
f 73/63/63 74/52/52 76/53/53
f 73/63/63 76/53/53 75/62/62
f 75/62/62 76/53/53 78/54/54
f 75/62/62 78/54/54 77/61/61
f 77/61/61 78/54/54 80/55/55
f 77/61/61 80/55/55 79/60/60
f 79/60/60 80/55/55 82/56/56
f 79/60/60 82/56/56 81/59/59
f 81/59/59 82/56/56 84/57/57
f 81/59/59 84/57/57 83/58/58
f 2/96/96 84/77/77 12/95/95
f 12/95/95 84/77/77 82/78/78
f 12/95/95 82/78/78 24/94/94
f 24/94/94 82/78/78 80/79/79
f 24/94/94 80/79/79 40/93/93
f 40/93/93 80/79/79 78/80/80
f 40/93/93 78/80/80 52/92/92
f 52/92/92 78/80/80 76/81/81
f 52/92/92 76/81/81 56/91/91
f 56/91/91 76/81/81 74/82/82
f 56/91/91 74/82/82 58/90/90
f 58/90/90 74/82/82 72/83/83
f 58/90/90 72/83/83 60/89/89
f 60/89/89 72/83/83 70/84/84
f 60/89/89 70/84/84 62/88/88
f 62/88/88 70/84/84 68/85/85
f 62/88/88 68/85/85 64/87/87
f 64/87/87 68/85/85 66/86/86
f 38/97/97 30/98/98 36/100/100
f 36/100/100 30/98/98 32/99/99
f 29/101/101 37/102/102 31/104/104
f 31/104/104 37/102/102 35/103/103
f 53/105/105 43/106/106 49/122/122
f 49/122/122 43/106/106 47/121/121
f 47/121/121 43/106/106 45/120/120
f 45/120/120 43/106/106 41/119/119
f 41/119/119 43/106/106 33/118/118
f 33/118/118 43/106/106 27/117/117
f 27/117/117 43/106/106 21/116/116
f 21/116/116 43/106/106 19/115/115
f 19/115/115 43/106/106 25/107/107
f 19/115/115 25/107/107 17/114/114
f 17/114/114 25/107/107 13/113/113
f 13/113/113 25/107/107 7/112/112
f 7/112/112 25/107/107 3/111/111
f 3/111/111 25/107/107 5/110/110
f 5/110/110 25/107/107 9/109/109
f 9/109/109 25/107/107 15/108/108
f 29/124/124 31/125/125 30/123/123
f 30/123/123 31/125/125 32/130/130
f 32/130/130 31/125/125 36/129/129
f 36/129/129 31/125/125 35/126/126
f 36/129/129 35/126/126 38/128/128
f 38/128/128 35/126/126 37/127/127
f 53/132/132 49/133/133 54/131/131
f 54/131/131 49/133/133 50/162/162
f 50/162/162 49/133/133 47/134/134
f 50/162/162 47/134/134 48/161/161
f 48/161/161 47/134/134 45/135/135
f 48/161/161 45/135/135 46/160/160
f 46/160/160 45/135/135 41/136/136
f 46/160/160 41/136/136 42/159/159
f 42/159/159 41/136/136 33/137/137
f 42/159/159 33/137/137 34/158/158
f 34/158/158 33/137/137 27/138/138
f 34/158/158 27/138/138 28/157/157
f 28/157/157 27/138/138 21/139/139
f 28/157/157 21/139/139 22/156/156
f 22/156/156 21/139/139 19/140/140
f 22/156/156 19/140/140 20/155/155
f 20/155/155 19/140/140 17/141/141
f 20/155/155 17/141/141 18/154/154
f 18/154/154 17/141/141 13/142/142
f 18/154/154 13/142/142 14/153/153
f 14/153/153 13/142/142 7/143/143
f 14/153/153 7/143/143 8/152/152
f 8/152/152 7/143/143 3/144/144
f 8/152/152 3/144/144 4/151/151
f 4/151/151 3/144/144 5/145/145
f 4/151/151 5/145/145 6/150/150
f 6/150/150 5/145/145 10/149/149
f 10/149/149 5/145/145 9/146/146
f 10/149/149 9/146/146 15/147/147
f 15/147/147 16/148/148 10/149/149
f 16/163/163 26/164/164 10/180/180
f 10/180/180 26/164/164 6/179/179
f 6/179/179 26/164/164 4/178/178
f 4/178/178 26/164/164 8/177/177
f 8/177/177 26/164/164 14/176/176
f 14/176/176 26/164/164 18/175/175
f 18/175/175 26/164/164 20/174/174
f 20/174/174 26/164/164 44/165/165
f 20/174/174 44/165/165 22/173/173
f 22/173/173 44/165/165 28/172/172
f 28/172/172 44/165/165 34/171/171
f 34/171/171 44/165/165 42/170/170
f 42/170/170 44/165/165 46/169/169
f 46/169/169 44/165/165 48/168/168
f 48/168/168 44/165/165 50/167/167
f 50/167/167 44/165/165 54/166/166

# 84 vertices
# 180 texture params
# 180 normals
# 164 facets

# 1 groups
